M48
; DRILL file KiCad 10.0.5 date 2026-09-01T15:48:41
; FORMAT={-:-/ absolute / metric / decimal}
; #@! TF.CreationDate,2026-09-01T15:48:41-04:00
; #@! TF.GenerationSoftware,Kicad,Pcbnew,10.0.5
; #@! TF.FileFunction,Plated,1,2,PTH
FMAT,2
METRIC
; #@! TA.AperFunction,Plated,PTH,ViaDrill
T1C0.300
; #@! TA.AperFunction,Plated,PTH,ComponentDrill
T2C1.000
; #@! TA.AperFunction,Plated,PTH,ComponentDrill
T3C1.100
; #@! TA.AperFunction,Plated,PTH,ComponentDrill
T4C1.200
%
G90
G05
T1
X79.5Y-56.0
X86.0Y-56.0
X93.0Y-51.5
X94.008Y-46.4
X94.016Y-48.866
X94.138Y-47.234
X100.07Y-40.101
X101.0Y-62.0
X103.5Y-41.0
X107.0Y-40.0
X109.0Y-61.0
T2
X103.93Y-43.66
X103.93Y-46.2
X103.93Y-48.74
X103.93Y-51.28
X103.93Y-53.82
X103.93Y-56.36
X103.93Y-58.9
X106.47Y-43.66
X106.47Y-46.2
X106.47Y-48.74
X106.47Y-51.28
X106.47Y-53.82
X106.47Y-56.36
X106.47Y-58.9
T3
X80.25Y-57.75
X80.25Y-62.25
X86.75Y-57.75
X86.75Y-62.25
X91.25Y-57.75
X91.25Y-62.25
X95.5Y-48.0
X95.5Y-54.5
X97.75Y-57.75
X97.75Y-62.25
X100.0Y-48.0
X100.0Y-54.5
T4
X81.703Y-42.5
X81.703Y-50.5
M30
